<?xml version="1.0" encoding="utf-8"?>
<!-- Generator: Adobe Illustrator 28.2.0, SVG Export Plug-In . SVG Version: 6.00 Build 0)  -->
<svg version="1.1" id="Laag_1" xmlns="http://www.w3.org/2000/svg" xmlns:xlink="http://www.w3.org/1999/xlink" x="0px" y="0px"
	 viewBox="0 0 1275 850" style="enable-background:new 0 0 1275 850;" width="1275" height="850" xml:space="preserve">
<style type="text/css">
	.st0{fill:none;}
	.st1{fill:#FFFFFF;}
</style>
<rect class="st0" width="1275" height="850"/>
<path class="st1" d="M892,353c-0.6-0.7-1.2-1.3-1.9-1.9l-78.3-65c-17.1-16-39.3-24.7-62.7-24.7c-36.7,0-69,21.4-83.6,53.8
	c-18.1-5.8-38.1-5.8-56.1,0c-14.6-32.4-46.9-53.8-83.6-53.8c-23.4,0-45.6,8.8-62.7,24.8l-72.4,60.2c-0.3,0.3-0.6,0.6-0.9,0.9
	c-31.8,24.7-52.4,63.2-52.4,106.5c0,74.3,60.5,134.8,134.8,134.8c46.9,0,88.3-24.1,112.5-60.6c0.2-0.3,0.5-0.6,0.7-0.9
	c15.5-26.6,34.1-30.2,52-30.2c17.5,0,36,3.7,52.2,30.5c0.2,0.4,0.5,0.7,0.8,1.1c24.2,36.3,65.4,60.2,112.2,60.2
	c74.3,0,134.8-60.5,134.8-134.8C937.5,413.7,919.8,377.8,892,353z M749.1,291.5c15.8,0,30.9,6,42.4,16.9c0.2,0.2,0.5,0.4,0.7,0.6
	l12.1,10c-0.6,0-1.1-0.1-1.7-0.1c-33.7,0-64.5,12.5-88.1,33c-6-8.9-13.6-16.6-22.2-22.9C701.8,306.5,723.9,291.5,749.1,291.5z
	 M482.8,309c0.2-0.2,0.5-0.4,0.7-0.6c11.5-10.9,26.5-16.9,42.4-16.9c25.2,0,47.3,15,56.8,37.6c-8.6,6.3-16.1,14-22.2,22.9
	c-23.7-20.5-54.4-33-88.2-33c-0.6,0-1.1,0.1-1.6,0.1L482.8,309z M472.3,558.5c-57.8,0-104.8-47-104.8-104.8S414.6,349,472.3,349
	s104.8,47,104.8,104.8S530.1,558.5,472.3,558.5z M637.5,466.8c-9.3,0-20.3,0.9-31.6,4.7c0.8-5.8,1.3-11.7,1.3-17.8
	c0-29.3-9.5-56.4-25.5-78.6c6.2-11.9,15.9-21.5,27.6-27.4c0.3-0.2,0.7-0.3,1.1-0.5c2.4-1.2,5-2.2,7.6-3.1c0.4-0.1,0.8-0.2,1.1-0.4
	c2.5-0.8,5.1-1.4,7.8-1.9c0.5-0.1,0.9-0.2,1.4-0.3c3-0.5,6.1-0.7,9.2-0.7s6.2,0.3,9.2,0.7c0.5,0.1,0.9,0.2,1.4,0.3
	c2.7,0.5,5.3,1.1,7.8,1.9c0.4,0.1,0.7,0.2,1.1,0.4c2.6,0.9,5.1,1.9,7.6,3.1c0.3,0.2,0.7,0.3,1,0.5c11.7,5.9,21.5,15.5,27.6,27.4
	c-16,22.2-25.5,49.2-25.5,78.6c0,6.1,0.5,12,1.3,17.9C657.7,467.7,646.7,466.8,637.5,466.8z M802.7,558.5
	c-57.8,0-104.8-47-104.8-104.8S744.9,349,802.7,349s104.8,47,104.8,104.8S860.4,558.5,802.7,558.5z"/>
</svg>
