<?xml version="1.0" encoding="utf-8"?>
<!-- Generator: Adobe Illustrator 21.0.0, SVG Export Plug-In . SVG Version: 6.00 Build 0)  -->
<!DOCTYPE svg PUBLIC "-//W3C//DTD SVG 1.1//EN" "http://www.w3.org/Graphics/SVG/1.1/DTD/svg11.dtd">
<svg version="1.1" id="Laag_1" xmlns="http://www.w3.org/2000/svg" xmlns:xlink="http://www.w3.org/1999/xlink" x="0px" y="0px"
	 width="1275px" height="850px" viewBox="0 0 1275 850" style="enable-background:new 0 0 1275 850;" xml:space="preserve">
<style type="text/css">
	.st0{fill:none;}
	.st1{fill:#FFB511;}
	.st2{fill:#E74536;}
	.st3{fill:#0F1941;}
</style>
<rect class="st0" width="1275" height="850"/>
<path class="st1" d="M859.5,361H692.3V193.8c0-35.4-28.7-64.2-64.2-64.2c-35.4,0-64.2,28.7-64.2,64.2V361H396.8
	c-35.4,0-64.2,28.7-64.2,64.2c0,35.4,28.7,64.2,64.2,64.2H564v167.2c0,35.4,28.7,64.2,64.2,64.2c35.4,0,64.2-28.7,64.2-64.2V489.3
	h167.2c35.4,0,64.2-28.7,64.2-64.2C923.6,389.7,894.9,361,859.5,361z"/>
<g>
	<path class="st2" d="M458.6,537.2c2.1-2.3,3.7-4.6,5.8-6.4c12.3-10.5,26.4-13.4,41.6-8c15.2,5.5,24.4,16.6,27,32.6
		c2.4,14.5-2.3,26.9-12.8,37.1c-6.4,6.3-12.8,12.7-19.2,19.1c-8.8,8.8-17.6,17.5-26.3,26.3c-9.8,9.7-23.8,9.8-33.5,0
		c-15.1-15.2-30.2-30.4-45.3-45.6c-8.6-8.6-13.1-18.9-13.1-31.2c0.1-19.6,15.2-37.2,34.4-40.3c14.4-2.3,26.8,1.8,37.1,11.9
		C455.7,534.1,456.8,535.3,458.6,537.2z"/>
</g>
<path class="st3" d="M901.3,208.3h-57.1v-57.1c0-12.1-9.8-21.9-21.9-21.9c-12.1,0-21.9,9.8-21.9,21.9v57.1h-57.1
	c-12.1,0-21.9,9.8-21.9,21.9s9.8,21.9,21.9,21.9h57.1v57.1c0,12.1,9.8,21.9,21.9,21.9c12.1,0,21.9-9.8,21.9-21.9v-57.1h57.1
	c12.1,0,21.9-9.8,21.9-21.9S913.4,208.3,901.3,208.3z"/>
<g>
	<path class="st2" d="M458.6,537.2c2.1-2.3,3.7-4.6,5.8-6.4c12.3-10.5,26.4-13.4,41.6-8c15.2,5.5,24.4,16.6,27,32.6
		c2.4,14.5-2.3,26.9-12.8,37.1c-6.4,6.3-12.8,12.7-19.2,19.1c-8.8,8.8-17.6,17.5-26.3,26.3c-9.8,9.7-23.8,9.8-33.5,0
		c-15.1-15.2-30.2-30.4-45.3-45.6c-8.6-8.6-13.1-18.9-13.1-31.2c0.1-19.6,15.2-37.2,34.4-40.3c14.4-2.3,26.8,1.8,37.1,11.9
		C455.7,534.1,456.8,535.3,458.6,537.2z"/>
</g>
<g>
</g>
<g>
</g>
<g>
</g>
<g>
</g>
<g>
</g>
<g>
</g>
<g>
</g>
<g>
</g>
<g>
</g>
<g>
</g>
<g>
</g>
<g>
</g>
<g>
</g>
<g>
</g>
<g>
</g>
</svg>
