<svg width="280" height="280" viewBox="0 0 280 280" fill="none" xmlns="http://www.w3.org/2000/svg">
<g clip-path="url(#clip0_49_556)">
<path d="M250.605 60.9701C227.604 34.3757 194.272 19.1167 159.13 19.1167C113.657 19.1167 71.8032 44.958 51.2993 85.3185H66.3734C85.5958 52.8187 120.923 32.328 159.13 32.328C190.427 32.328 220.126 45.9224 240.604 69.6102C242.995 72.3714 247.157 72.6753 249.918 70.284C252.679 67.8928 252.983 63.7312 250.592 60.9701H250.605Z" fill="white"/>
<path d="M248.782 211.182C246.06 208.752 241.886 208.989 239.455 211.711C219.03 234.566 189.767 247.672 159.143 247.672C121.861 247.672 87.8023 228.674 68.1307 197.548H52.832C74.0229 236.68 114.529 260.883 159.143 260.883C193.519 260.883 226.389 246.166 249.31 220.51C251.741 217.788 251.503 213.613 248.782 211.182Z" fill="#4E90E1"/>
<path d="M244.382 222.703C242.81 222.703 241.238 222.148 239.983 221.025C237.261 218.594 237.024 214.419 239.454 211.698C257.092 191.96 266.802 166.489 266.802 139.987C266.802 113.485 257.501 89.1365 240.604 69.597C238.213 66.8358 238.516 62.6611 241.278 60.283C244.039 57.8918 248.214 58.1957 250.592 60.9568C269.563 82.8875 280 110.962 280 139.987C280 169.012 269.087 198.328 249.284 220.496C247.976 221.963 246.166 222.703 244.356 222.703H244.382Z" fill="#00D7FF"/>
<path d="M152.049 74.036C155.417 73.534 158.866 73.2698 162.367 73.2698C200.547 73.2698 231.488 104.224 231.488 142.391C231.488 180.559 200.534 211.513 162.367 211.513C158.866 211.513 155.417 211.248 152.049 210.746" stroke="#00D7FF" stroke-linecap="round" stroke-linejoin="round"/>
<path d="M151.56 233.047C150.648 233.047 149.737 232.862 148.878 232.479L70.3765 197.535H27.4531C12.3129 197.535 0 185.222 0 170.082V112.772C0 97.6315 12.3129 85.3186 27.4531 85.3186H70.3765L148.878 50.3747C150.913 49.4631 153.291 49.6481 155.167 50.8767C157.043 52.0922 158.179 54.1796 158.179 56.4123V226.442C158.179 228.674 157.043 230.762 155.167 231.977C154.083 232.677 152.828 233.047 151.573 233.047H151.56ZM78.3826 186.636L144.954 216.269V66.5717L78.3826 96.2047V186.636ZM27.4531 98.5299C19.6055 98.5299 13.2113 104.924 13.2113 112.772V170.082C13.2113 177.93 19.6055 184.324 27.4531 184.324H65.1713V98.5299H27.4531Z" fill="#00D7FF"/>
<path d="M212.213 195.408C210.456 195.408 208.699 194.708 207.391 193.321C204.894 190.665 205.026 186.477 207.681 183.98C219.558 172.83 226.098 157.703 226.098 141.414C226.098 125.124 219.558 110.01 207.695 98.8601C205.039 96.3631 204.907 92.1752 207.404 89.5197C209.901 86.8642 214.076 86.7321 216.744 89.229C231.092 102.718 239.309 121.729 239.309 141.414C239.309 161.098 231.078 180.123 216.718 193.611C215.45 194.814 213.825 195.408 212.2 195.408H212.213Z" fill="#00D7FF"/>
<path d="M182.303 169.673C180.176 169.673 178.101 168.655 176.82 166.766C174.772 163.741 175.565 159.632 178.59 157.598C183.98 153.964 187.191 147.914 187.191 141.427C187.191 134.94 183.928 128.81 178.471 125.177C175.433 123.156 174.614 119.06 176.635 116.022C178.656 112.983 182.752 112.164 185.79 114.185C194.933 120.276 200.402 130.448 200.402 141.427C200.402 152.405 195.012 162.446 185.989 168.536C184.852 169.303 183.571 169.673 182.303 169.673Z" fill="#00D7FF"/>
</g>
<defs>
<clipPath id="clip0_49_556">
<rect width="280" height="241.767" fill="white" transform="translate(0 19.1167)"/>
</clipPath>
</defs>
</svg>
