<?xml version="1.0" encoding="utf-8"?>
<!-- Generator: Adobe Illustrator 22.0.1, SVG Export Plug-In . SVG Version: 6.00 Build 0)  -->
<!DOCTYPE svg PUBLIC "-//W3C//DTD SVG 1.1//EN" "http://www.w3.org/Graphics/SVG/1.1/DTD/svg11.dtd">
<svg version="1.1" xmlns="http://www.w3.org/2000/svg" xmlns:xlink="http://www.w3.org/1999/xlink" x="0px" y="0px" width="120px"
	 height="120px" viewBox="0 0 120 120" style="enable-background:new 0 0 120 120;" xml:space="preserve">
<style type="text/css">
	.st0{display:none;}
	.st1{display:inline;fill:none;stroke:#00FFFF;stroke-width:0.25;stroke-miterlimit:10;}
	.st2{fill:#2175D9;}
	.st3{fill:none;}
</style>
<g id="SAFE_AREA" class="st0">
	<rect x="20" y="20" class="st1" width="80" height="80"/>
</g>
<g id="LAYER_1">
	<path class="st2" d="M45.4,41.4h28c1.1,0,2-0.9,2-2s-0.9-2-2-2h-28c-1.1,0-2,0.9-2,2S44.3,41.4,45.4,41.4z"/>
	<path class="st2" d="M45.4,53.4h28c1.1,0,2-0.9,2-2s-0.9-2-2-2h-28c-1.1,0-2,0.9-2,2S44.3,53.4,45.4,53.4z"/>
	<path class="st2" d="M73.4,65.4c1.1,0,2-0.9,2-2s-0.9-2-2-2h-28c-1.1,0-2,0.9-2,2s0.9,2,2,2H73.4z"/>
	<path class="st2" d="M82.3,20.1H36.5c-4.4,0-8,3.6-8,8v63.8c0,4.4,3.6,8,8,8h29.2c0.1,0,0.3,0,0.4,0c0.1,0,0.1,0,0.2-0.1
		c0.1,0,0.1,0,0.2,0c0.1,0,0.1-0.1,0.2-0.1c0,0,0.1,0,0.1-0.1c0.1,0,0.1-0.1,0.2-0.1c0,0,0.1-0.1,0.1-0.1l22.6-22.6
		c0.4-0.4,0.6-0.9,0.6-1.4V28.1C90.3,23.7,86.7,20.1,82.3,20.1z M32.5,91.9V28.1c0-2.2,1.8-4,4-4h45.8c2.2,0,4,1.8,4,4v45.3H71.7
		c-4.4,0-8,3.6-8,8v14.6H36.5C34.3,95.9,32.5,94.1,32.5,91.9z M83.4,77.4L67.7,93.1V81.4c0-2.2,1.8-4,4-4H83.4z"/>
	<rect class="st3" width="120" height="120"/>
	<g>
	</g>
	<g>
	</g>
	<g>
	</g>
	<g>
	</g>
	<g>
	</g>
	<g>
	</g>
	<g>
	</g>
	<g>
	</g>
	<g>
	</g>
	<g>
	</g>
	<g>
	</g>
	<g>
	</g>
	<g>
	</g>
	<g>
	</g>
	<g>
	</g>
</g>
</svg>
