<?xml version="1.0" encoding="utf-8"?>
<!-- Generator: Adobe Illustrator 22.0.1, SVG Export Plug-In . SVG Version: 6.00 Build 0)  -->
<!DOCTYPE svg PUBLIC "-//W3C//DTD SVG 1.1//EN" "http://www.w3.org/Graphics/SVG/1.1/DTD/svg11.dtd">
<svg version="1.1" xmlns="http://www.w3.org/2000/svg" xmlns:xlink="http://www.w3.org/1999/xlink" x="0px" y="0px" width="120px"
	 height="120px" viewBox="0 0 120 120" style="enable-background:new 0 0 120 120;" xml:space="preserve">
<style type="text/css">
	.st0{display:none;}
	.st1{display:inline;fill:none;stroke:#00FFFF;stroke-width:0.25;stroke-linecap:round;stroke-miterlimit:10;}
	.st2{fill:#2175D9;}
	.st3{fill:none;}
</style>
<g id="SAFE_AREA" class="st0">
	<rect x="20" y="20" class="st1" width="80" height="80"/>
</g>
<g id="LAYER_1">
	<path class="st2" d="M83,20.1H37.2c-4.4,0-8,3.6-8,8v63.8c0,4.4,3.6,8,8,8H83c4.4,0,8-3.6,8-8V28.1C91,23.7,87.4,20.1,83,20.1z
		 M87,91.9c0,2.2-1.8,4-4,4H37.2c-2.2,0-4-1.8-4-4V28.1c0-2.2,1.8-4,4-4H83c2.2,0,4,1.8,4,4V91.9z"/>
	<path class="st2" d="M74.1,78.8h-28c-1.1,0-2,0.9-2,2s0.9,2,2,2h28c1.1,0,2-0.9,2-2S75.2,78.8,74.1,78.8z"/>
	<path class="st2" d="M74.1,66.8h-28c-1.1,0-2,0.9-2,2s0.9,2,2,2h28c1.1,0,2-0.9,2-2S75.2,66.8,74.1,66.8z"/>
	<path class="st2" d="M68.1,34.5h-16c-4.4,0-8,3.6-8,8v8.3c0,4.4,3.6,8,8,8h16c4.4,0,8-3.6,8-8v-8.3C76.1,38,72.5,34.5,68.1,34.5z
		 M72.1,50.8c0,2.2-1.8,4-4,4h-16c-2.2,0-4-1.8-4-4v-8.3c0-2.2,1.8-4,4-4h16c2.2,0,4,1.8,4,4V50.8z"/>
	<rect class="st3" width="120" height="120"/>
	<g>
	</g>
	<g>
	</g>
	<g>
	</g>
	<g>
	</g>
	<g>
	</g>
	<g>
	</g>
	<g>
	</g>
	<g>
	</g>
	<g>
	</g>
	<g>
	</g>
	<g>
	</g>
	<g>
	</g>
	<g>
	</g>
	<g>
	</g>
	<g>
	</g>
</g>
</svg>
